<?xml version="1.0" encoding="utf-8"?>
<!-- Generator: Adobe Illustrator 22.0.1, SVG Export Plug-In . SVG Version: 6.00 Build 0)  -->
<svg version="1.1" id="Layer_1" xmlns="http://www.w3.org/2000/svg" xmlns:xlink="http://www.w3.org/1999/xlink" x="0px" y="0px"
	 viewBox="0 0 41 69" style="enable-background:new 0 0 41 69;" xml:space="preserve">
<style type="text/css">
	.st0{fill:#FF637B;stroke:#FFFFFF;stroke-width:2;}
	.st1{fill:#FFFFFF;}
</style>
<title>gif</title>
<desc>Created with Sketch.</desc>
<path id="Shape_13_copy_2" class="st0" d="M1.2,32c-0.2-0.1,10-8.9,17.3,6c8.1,11,20.7-1,20.7-1s0.4,24,0,24c-0.4,0-37.7-0.2-38,0
	C1,61.3,1.8,32.3,1.2,32z"/>
<path id="Shape" class="st1" d="M39.5,10.2c0,0,0-0.1,0-0.1l-2.7-5.5c0.1-0.3,0.2-0.6,0.2-0.9V2.2C36.9,1,36,0,34.8,0H5.7
	C4.5,0,3.5,1,3.5,2.2v1.5c0,0.3,0.1,0.6,0.2,0.9L1,10.1c0,0,0,0.1,0,0.1c-0.5,1.3-0.7,2.7-0.7,4.1v47.3c0,1.2,0.8,2.3,2,2.6
	c1.2,0.2,2.1,1.3,2.1,2.6c0,0.5,0.3,1,0.8,1.1c0.2,0,4.3,1.1,15.1,1.1s14.9-1.1,15.1-1.1c0.5-0.1,0.8-0.6,0.8-1.1
	c0-1.3,0.9-2.3,2.1-2.6c1.2-0.3,2-1.4,2-2.6V14.3C40.2,12.9,40,11.5,39.5,10.2z M5.7,2.2h29.1v1.5H5.7V2.2z M34,65.9
	c-9.2,1.2-18.4,1.2-27.6,0c-0.2-1.1-0.8-2.1-1.7-2.8c3.2,0.3,8.5,0.7,15.6,0.7s12.3-0.4,15.6-0.7C34.9,63.8,34.2,64.8,34,65.9
	L34,65.9z M38.1,60.7c-3.3,0.3-11,1-17.7,1h0c-6.7,0-14.5-0.6-17.7-1V14.3c0-1.1,0.2-2.3,0.6-3.4l2.5-5.2H35l2.5,5.2
	c0.4,1.1,0.6,2.2,0.6,3.4V60.7z"/>
</svg>
